<svg id="Capa_1" enable-background="new 0 0 512 512" height="512" viewBox="0 0 512 512" width="512" xmlns="http://www.w3.org/2000/svg"><g><path d="m372.4 496h-232.8l67.5-112.8h97.8z" fill="#edf5ff"/><path d="m304.9 383.2 67.5 112.8h-116.4v-112.8z" fill="#d5e8fe"/><g><path d="m0 16v390h512v-390z" fill="#453d83"/></g><g><path d="m256 16h256v390h-256z" fill="#2d2755"/></g><g><path d="m30 46h452v330h-452z" fill="#7ed8f6"/></g><g><path d="m256 46h226v330h-226z" fill="#6aa9ff"/></g><g><path d="m256 76c-24.901 0-45 20.099-45 45s20.099 45 45 45 45-20.099 45-45-20.099-45-45-45z" fill="#edf5ff"/></g><g><path d="m256 166c-41.4 0-75 33.6-75 75v15h150v-15c0-41.4-33.6-75-75-75z" fill="#edf5ff"/></g><g><path d="m121 286h30v30h-30z" fill="#fed843"/></g><g><path d="m181 286h30v30h-30z" fill="#fed843"/></g><g><path d="m241 286h30v30h-30z" fill="#fed843"/></g><g><path d="m301 286h30v30h-30z" fill="#fabe2c"/></g><g><path d="m361 286h30v30h-30z" fill="#fabe2c"/></g><path d="m256 166v-90c24.901 0 45 20.099 45 45s-20.099 45-45 45z" fill="#d5e8fe"/><path d="m256 286h15v30h-15z" fill="#fabe2c"/><path d="m331 241v15h-75v-90c41.4 0 75 33.6 75 75z" fill="#d5e8fe"/></g></svg>