<svg id="flat" height="512" viewBox="0 0 512 512" width="512" xmlns="http://www.w3.org/2000/svg"><path d="m423.94222 383.92284v-232a16 16 0 0 0 -16-16h-296a16 16 0 0 0 -16 16v232z" fill="#548aff"/><rect fill="#91c0ff" height="168" rx="16" width="248" x="135.942" y="175.923"/><path d="m487.94222 383.92284v16a15.99556 15.99556 0 0 1 -16 16h-432a15.99556 15.99556 0 0 1 -16-16v-16z" fill="#d1e4ff"/><path d="m303.94222 383.92284a8.00262 8.00262 0 0 1 -2.34009 5.65991l-8 8a8.00769 8.00769 0 0 1 -5.65991 2.34009h-64a8.00769 8.00769 0 0 1 -5.65991-2.34009l-8-8a8.00262 8.00262 0 0 1 -2.34009-5.65991z" fill="#bed3f7"/><circle cx="159.942" cy="199.923" fill="#f5714f" r="8"/><circle cx="183.942" cy="199.923" fill="#ffc431" r="8"/><circle cx="207.942" cy="199.923" fill="#3cde8d" r="8"/><g fill="#7dafff"><path d="m159.942 231.923h16v16h-16z"/><path d="m199.942 231.923h40v16h-40z"/><path d="m159.942 263.923h16v16h-16z"/><path d="m287.942 263.923h32v16h-32z"/><path d="m199.942 263.923h72v16h-72z"/><path d="m159.942 295.923h16v16h-16z"/><path d="m199.942 295.923h32v16h-32z"/><path d="m255.942 231.923h32v16h-32z"/><path d="m247.942 295.923h16v16h-16z"/></g><path d="m327.942 95.923h160v112h-160z" fill="#ffc431"/><path d="m487.94222 105.69286-39.01 27.30993 39.01 32.51v20.83l-52.6001-43.84-22.80981 15.9701a7.99037 7.99037 0 0 1 -9.18018 0l-22.80981-15.9701-52.6001 43.84v-20.83l39.01-32.51-39.01-27.30993v-9.77h13.95l66.05005 46.23 66.05005-46.23h13.95z" fill="#ffb401"/></svg>